<?xml version="1.0" standalone="no"?>
<!DOCTYPE svg PUBLIC "-//W3C//DTD SVG 20010904//EN"
 "http://www.w3.org/TR/2001/REC-SVG-20010904/DTD/svg10.dtd">
<svg version="1.0" xmlns="http://www.w3.org/2000/svg"
 width="1024.000000pt" height="1024.000000pt" viewBox="0 0 1024.000000 1024.000000"
 preserveAspectRatio="xMidYMid meet">
<metadata>
Created by potrace 1.11, written by Peter Selinger 2001-2013
</metadata>
<g transform="translate(0.000000,1024.000000) scale(0.100000,-0.100000)"
fill="#000000" stroke="none">
<path d="M4590 6593 l-2061 -2008 1210 -3 c666 -1 1211 -5 1211 -8 0 -3 -427
-659 -948 -1457 -522 -799 -952 -1459 -957 -1467 -13 -22 -123 -116 1875 1600
1015 872 2057 1767 2315 1989 259 222 472 408 473 412 2 5 -602 9 -1343 9
-1117 0 -1346 2 -1342 13 5 14 1585 2839 1619 2895 11 17 17 32 14 32 -3 0
-932 -903 -2066 -2007z"/>
</g>
</svg>
